<?xml version="1.0" encoding="UTF-8" standalone="no"?>
<!-- Created with Inkscape (http://www.inkscape.org/) -->

<svg
   xmlns:dc="http://purl.org/dc/elements/1.1/"
   xmlns:cc="http://creativecommons.org/ns#"
   xmlns:rdf="http://www.w3.org/1999/02/22-rdf-syntax-ns#"
   xmlns:svg="http://www.w3.org/2000/svg"
   xmlns="http://www.w3.org/2000/svg"
   xmlns:sodipodi="http://sodipodi.sourceforge.net/DTD/sodipodi-0.dtd"
   xmlns:inkscape="http://www.inkscape.org/namespaces/inkscape"
   id="svg2"
   version="1.1"
   inkscape:version="0.91 r13725"
   xml:space="preserve"
   width="472.60498"
   height="933.17883"
   viewBox="0 0 472.60499 933.18116"
   sodipodi:docname="bg.svg"><metadata
     id="metadata8"><rdf:RDF><cc:Work
         rdf:about=""><dc:format>image/svg+xml</dc:format><dc:type
           rdf:resource="http://purl.org/dc/dcmitype/StillImage" /><dc:title></dc:title></cc:Work></rdf:RDF></metadata><defs
     id="defs6"><clipPath
       clipPathUnits="userSpaceOnUse"
       id="clipPath18"><path
         d="m 0,869.743 846.084,0 L 846.084,0 0,0 0,869.743 Z"
         id="path20"
         inkscape:connector-curvature="0" /></clipPath></defs><sodipodi:namedview
     pagecolor="#ffffff"
     bordercolor="#666666"
     borderopacity="1"
     objecttolerance="10"
     gridtolerance="10"
     guidetolerance="10"
     inkscape:pageopacity="0"
     inkscape:pageshadow="2"
     inkscape:window-width="1920"
     inkscape:window-height="1016"
     id="namedview4"
     showgrid="false"
     inkscape:zoom="0.4341512"
     inkscape:cx="450.45233"
     inkscape:cy="482.92112"
     inkscape:window-x="0"
     inkscape:window-y="27"
     inkscape:window-maximized="1"
     inkscape:current-layer="g10" /><g
     id="g10"
     inkscape:groupmode="layer"
     inkscape:label="pixel77-free-vector-conceptual-tree"
     transform="matrix(1.25,0,0,-1.25,0,933.1805)"><g
       id="g14"
       transform="matrix(1,0,0,0.98309483,-266.07402,-5.7709838)"><g
         id="g16"
         clip-path="url(#clipPath18)"><g
           id="g22"
           transform="translate(593.4116,505.9531)"><path
             d="m 0,0 -44.149,0 c -8.836,0 -15.999,7.163 -15.999,15.999 l 0,44.149 c 0,8.836 7.163,15.999 15.999,15.999 l 9.691,0 34.458,0 c 8.836,0 15.999,-7.163 15.999,-15.999 l 0,-44.149 C 15.999,7.163 8.836,0 0,0 m -22.074,-27.89 0,-6.153 c 0,-8.836 -7.163,-15.999 -15.999,-15.999 l -6.154,0 c -8.836,0 -15.998,7.163 -15.998,15.999 l 0,6.153 c 0,8.836 7.162,15.999 15.998,15.999 l 6.154,0 c 8.836,0 15.999,-7.163 15.999,-15.999 m -123.143,-41.026 c -8.836,0 -15.999,7.163 -15.999,15.999 l 0,39.38 c 0,8.836 7.163,15.998 15.999,15.998 l 39.381,0 c 8.836,0 15.998,-7.162 15.998,-15.998 l 0,-32.766 0,-6.614 c 0,-8.836 -7.162,-15.999 -15.998,-15.999 l -39.381,0 z m -105.837,22.613 c -3.398,0 -6.153,2.755 -6.153,6.153 l 0,12.876 c 0,3.398 2.755,6.153 6.153,6.153 l 64.61,0 c 3.399,0 6.153,-2.755 6.153,-6.153 l 0,-12.876 c 0,-3.398 -2.754,-6.153 -6.153,-6.153 l -64.61,0 z m -30.674,51.687 0,75.071 c 0,8.835 7.164,15.998 15.999,15.998 l 75.07,0 c 8.836,0 15.999,-7.163 15.999,-15.998 l 0,-75.071 c 0,-8.835 -7.163,-15.998 -15.999,-15.998 l -75.07,0 c -8.835,0 -15.999,7.163 -15.999,15.998 m -21.013,102.76 c -4.758,0 -8.615,3.857 -8.615,8.615 l 0,38.15 c 0,4.758 3.857,8.615 8.615,8.615 l 39.381,0 c 4.758,0 8.614,-3.857 8.614,-8.615 l 0,-23.382 0,-14.768 c 0,-4.758 -3.856,-8.615 -8.614,-8.615 l -39.381,0 z m 89.838,111.99 39.381,0 c 8.835,0 15.999,-7.163 15.999,-15.999 l 0,-39.381 c 0,-8.835 -7.164,-15.998 -15.999,-15.998 l -39.381,0 c -8.836,0 -15.999,7.163 -15.999,15.998 l 0,39.381 c 0,8.836 7.163,15.999 15.999,15.999 m 171.061,-15.999 c 6.796,0 12.307,-5.509 12.307,-12.306 l 0,-23.383 0,-7.383 c 0,-6.797 -5.511,-12.307 -12.307,-12.307 l -86.069,0 c -6.796,0 -12.307,5.51 -12.307,12.307 l 0,30.766 c 0,6.797 5.511,12.306 12.307,12.306 l 86.069,0 z m -119.374,-168.597 0,1.231 c 0,8.835 7.163,15.998 15.999,15.998 l 1.231,0 c 8.835,0 15.998,-7.163 15.998,-15.998 l 0,-1.231 c 0,-8.836 -7.163,-15.999 -15.998,-15.999 l -1.231,0 c -8.836,0 -15.999,7.163 -15.999,15.999 m 66.456,94.131 c 8.835,0 15.998,-7.163 15.998,-15.998 l 0,-30.767 c 0,-8.836 -7.163,-15.998 -15.998,-15.998 l -30.766,0 c -8.836,0 -15.999,7.162 -15.999,15.998 l 0,30.767 c 0,8.835 7.163,15.998 15.999,15.998 l 30.766,0 z m -136.603,-21.525 -10.461,0 c -2.039,0 -3.692,1.653 -3.692,3.692 l 0,19.075 c 0,2.039 1.653,3.693 3.692,3.693 l 80.608,0 c 2.04,0 3.693,-1.654 3.693,-3.693 l 0,-19.075 c 0,-2.039 -1.653,-3.692 -3.693,-3.692 l -70.147,0 z m 151.371,-91.068 -31.997,0 c -3.399,0 -6.154,2.755 -6.154,6.153 l 0,24.613 c 0,3.398 2.755,6.153 6.154,6.153 l 31.997,0 c 3.398,0 6.153,-2.755 6.153,-6.153 l 0,-24.613 c 0,-3.398 -2.755,-6.153 -6.153,-6.153 m 84.915,104.606 0,-19.691 c 0,-4.758 -3.857,-8.615 -8.614,-8.615 l -50.996,0 c -4.758,0 -8.615,3.857 -8.615,8.615 l 0,19.691 c 0,4.757 3.857,8.614 8.615,8.614 l 50.996,0 c 4.757,0 8.614,-3.857 8.614,-8.614 m 21.845,-45.535 -5.846,0 0,51.688 c 0,8.835 -7.163,15.998 -15.999,15.998 l -14.768,0 0,59.676 c 0,8.836 -7.163,15.998 -15.999,15.998 l -54.148,0 0,0.627 c 0,8.836 -7.163,15.999 -15.999,15.999 l -9.976,0 c -1.23,11.756 -11.17,20.921 -23.252,20.921 l -102.144,0 c -12.913,0 -23.383,-10.469 -23.383,-23.383 l 0,-54.149 -44.303,0 c -12.914,0 -23.383,-10.469 -23.383,-23.382 l 0,-52.918 c 0,-12.914 10.469,-23.383 23.383,-23.383 l 2.461,0 0,-25.844 -7.384,0 c -8.836,0 -15.998,-7.162 -15.998,-15.998 l 0,-47.996 c 0,-8.835 7.162,-15.999 15.998,-15.999 l 36.92,0 0,-19.69 c 0,-8.835 7.163,-15.998 15.998,-15.998 l 41.843,0 0,-14.768 c 0,-8.836 7.163,-15.998 15.998,-15.998 l 41.842,0 0,-413.501 11.077,0 0,416.906 c 1.448,1.134 2.691,2.51 3.677,4.07 l 20.935,0 c 1.961,0 3.83,0.37 5.566,1.016 2.69,-5.052 8.003,-8.491 14.125,-8.491 l 34.459,0 c 8.836,0 15.998,7.162 15.998,15.998 l 0,7.692 21.537,0 c 8.835,0 15.998,7.163 15.998,15.998 l 0,35.689 34.767,0 c 8.835,0 15.998,7.163 15.998,15.998 l 0,61.225 c 0,8.836 -7.163,15.999 -15.998,15.999"
             style="fill:#2ca089;fill-opacity:1;fill-rule:nonzero;stroke:none"
             id="path24"
             inkscape:connector-curvature="0" /></g><g
           id="g26"
           transform="translate(388.0464,169.8887)"><path
             d="m 0,0 c -2.124,0 -3.846,-1.722 -3.846,-3.846 l 0,-166.043 7.692,0 0,166.043 C 3.846,-1.722 2.124,0 0,0"
             style="fill:#2ca089;fill-opacity:1;fill-rule:nonzero;stroke:none"
             id="path28"
             inkscape:connector-curvature="0" /></g><g
           id="g30"
           transform="translate(400.0176,97.1064)"><path
             d="m 0,0 c -2.124,0 -3.846,-1.076 -3.846,-2.406 l 0,-94.7 7.692,0 0,94.7 C 3.846,-1.076 2.124,0 0,0"
             style="fill:#2ca089;fill-opacity:1;fill-rule:nonzero;stroke:none"
             id="path32"
             inkscape:connector-curvature="0" /></g><g
           id="g34"
           transform="translate(411.9888,113.6006)"><path
             d="m 0,0 c -2.123,0 -3.846,-1.296 -3.846,-2.895 l 0,-110.706 7.692,0 0,110.706 C 3.846,-1.296 2.125,0 0,0"
             style="fill:#2ca089;fill-opacity:1;fill-rule:nonzero;stroke:none"
             id="path36"
             inkscape:connector-curvature="0" /></g><g
           id="g38"
           transform="translate(423.9609,132.7549)"><path
             d="m 0,0 c -2.124,0 -3.846,-1.536 -3.846,-3.43 l 0,-129.325 7.692,0 0,129.325 C 3.846,-1.536 2.124,0 0,0"
             style="fill:#2ca089;fill-opacity:1;fill-rule:nonzero;stroke:none"
             id="path40"
             inkscape:connector-curvature="0" /></g><g
           id="g42"
           transform="translate(435.9326,72.1016)"><path
             d="m 0,0 c -2.124,0 -3.846,-0.969 -3.846,-2.163 l 0,-69.939 7.692,0 0,69.939 C 3.846,-0.969 2.124,0 0,0"
             style="fill:#2ca089;fill-opacity:1;fill-rule:nonzero;stroke:none"
             id="path44"
             inkscape:connector-curvature="0" /></g><g
           id="g46"
           transform="translate(511.3237,101.0967)"><path
             d="m 0,0 c -2.124,0 -3.846,-1.721 -3.846,-3.846 l 0,-97.251 7.692,0 0,97.251 C 3.846,-1.721 2.123,0 0,0"
             style="fill:#2ca089;fill-opacity:1;fill-rule:nonzero;stroke:none"
             id="path48"
             inkscape:connector-curvature="0" /></g><g
           id="g50"
           transform="translate(463.437,97.1064)"><path
             d="m 0,0 c -2.124,0 -3.846,-1.076 -3.846,-2.406 l 0,-94.7 7.692,0 0,94.7 C 3.846,-1.076 2.124,0 0,0"
             style="fill:#2ca089;fill-opacity:1;fill-rule:nonzero;stroke:none"
             id="path52"
             inkscape:connector-curvature="0" /></g><g
           id="g54"
           transform="translate(475.4087,113.6006)"><path
             d="m 0,0 c -2.124,0 -3.846,-1.296 -3.846,-2.895 l 0,-110.706 7.692,0 0,110.706 C 3.846,-1.296 2.123,0 0,0"
             style="fill:#2ca089;fill-opacity:1;fill-rule:nonzero;stroke:none"
             id="path56"
             inkscape:connector-curvature="0" /></g><g
           id="g58"
           transform="translate(487.3804,101.0967)"><path
             d="m 0,0 c -2.124,0 -3.846,-1.536 -3.846,-3.43 l 0,-97.667 7.693,0 0,97.667 C 3.847,-1.536 2.123,0 0,0"
             style="fill:#2ca089;fill-opacity:1;fill-rule:nonzero;stroke:none"
             id="path60"
             inkscape:connector-curvature="0" /></g><g
           id="g62"
           transform="translate(499.3521,72.1016)"><path
             d="m 0,0 c -2.124,0 -3.846,-0.969 -3.846,-2.163 l 0,-69.939 7.692,0 0,69.939 C 3.846,-0.969 2.124,0 0,0"
             style="fill:#2ca089;fill-opacity:1;fill-rule:nonzero;stroke:none"
             id="path64"
             inkscape:connector-curvature="0" /></g></g></g></g></svg>