<?xml version="1.0" encoding="UTF-8" standalone="no"?>
<!-- Creator: CorelDRAW X7 -->

<svg
   xmlns:dc="http://purl.org/dc/elements/1.1/"
   xmlns:cc="http://creativecommons.org/ns#"
   xmlns:rdf="http://www.w3.org/1999/02/22-rdf-syntax-ns#"
   xmlns:svg="http://www.w3.org/2000/svg"
   xmlns="http://www.w3.org/2000/svg"
   xmlns:sodipodi="http://sodipodi.sourceforge.net/DTD/sodipodi-0.dtd"
   xmlns:inkscape="http://www.inkscape.org/namespaces/inkscape"
   xml:space="preserve"
   width="32"
   height="32"
   version="1.1"
   style="clip-rule:evenodd;fill-rule:evenodd;image-rendering:optimizeQuality;shape-rendering:geometricPrecision;text-rendering:geometricPrecision"
   viewBox="0 0 903.11109 903.11109"
   id="svg2"
   inkscape:version="0.91 r13725"
   sodipodi:docname="favicon.svg"
   inkscape:export-filename="/home/yromero/git/netcop-server/netcop/static/img/favicon.svg.png"
   inkscape:export-xdpi="89.775917"
   inkscape:export-ydpi="89.775917"><metadata
     id="metadata54"><rdf:RDF><cc:Work
         rdf:about=""><dc:format>image/svg+xml</dc:format><dc:type
           rdf:resource="http://purl.org/dc/dcmitype/StillImage" /><dc:title></dc:title></cc:Work></rdf:RDF></metadata><sodipodi:namedview
     pagecolor="#ffffff"
     bordercolor="#666666"
     borderopacity="1"
     objecttolerance="10"
     gridtolerance="10"
     guidetolerance="10"
     inkscape:pageopacity="0"
     inkscape:pageshadow="2"
     inkscape:window-width="1920"
     inkscape:window-height="1016"
     id="namedview52"
     showgrid="false"
     inkscape:zoom="10.788021"
     inkscape:cx="26.950078"
     inkscape:cy="0.45892265"
     inkscape:window-x="0"
     inkscape:window-y="27"
     inkscape:window-maximized="1"
     inkscape:current-layer="Capa_x0020_1"
     units="px" /><defs
     id="defs4"><style
       type="text/css"
       id="style6"><![CDATA[
    .str0 {stroke:#0C5CA8;stroke-width:7.62}
    .fil1 {fill:none}
    .fil5 {fill:#00ADEF}
    .fil0 {fill:#00ADEF}
    .fil4 {fill:#0C5CA8}
    .fil3 {fill:#22569A}
    .fil2 {fill:#38C6F4}
    .fil6 {fill:#38C6F4}
   ]]></style></defs><g
     id="Capa_x0020_1"
     transform="translate(0,-27036.887)"><metadata
       id="CorelCorpID_0Corel-Layer" /><g
       id="g3473"
       transform="matrix(0.05127583,0,0,0.05127583,379.67397,26099.854)"><path
         style="clip-rule:evenodd;fill:#00adef;fill-rule:evenodd;image-rendering:optimizeQuality;shape-rendering:geometricPrecision;text-rendering:geometricPrecision"
         inkscape:connector-curvature="0"
         id="path10"
         d="m -3534.1789,32376.407 c -57.0001,26 -96.0001,84 -96.0001,152 0,92 76.0001,185 167.0002,167 l 2687.99968,-545 c 89.9998,-19 166.9999,-75 166.9999,-167 0,-80 -55.9999,-125 -129.0001,-163 l 0,0 -2007.99968,-1208 c -26,-17 -57.0002,-27 -91,-27 -93.0002,0 -166.9999,75 -166.9999,167 0,9 0,17 0.999,25 l 0,0 0,350 -348,1001 c -46,94 -105.9998,178 -183.9998,248 l 0,0 z"
         class="fil0" /><circle
         style="clip-rule:evenodd;fill:#00adef;fill-rule:evenodd;image-rendering:optimizeQuality;shape-rendering:geometricPrecision;text-rendering:geometricPrecision"
         id="circle12"
         r="514"
         cy="31416.408"
         cx="6824.8203"
         class="fil0" /><line
         style="clip-rule:evenodd;fill:none;fill-rule:evenodd;image-rendering:optimizeQuality;shape-rendering:geometricPrecision;text-rendering:geometricPrecision"
         id="line14"
         y2="31325.408"
         x2="1370.8213"
         y1="21110.408"
         x1="1370.8213"
         class="fil1" /><path
         style="clip-rule:evenodd;fill:#00adef;fill-rule:evenodd;image-rendering:optimizeQuality;shape-rendering:geometricPrecision;text-rendering:geometricPrecision"
         inkscape:connector-curvature="0"
         id="path16"
         d="m -1680.1791,31320.407 -1507,842 c -2619.9997,-541 -4218.9996,-1506 -4218.9996,-2547 0,-1645 3928.9997,-2979.999 8776.9995,-2979.999 4846.9995,0 8776.9992,1334.999 8776.9992,2979.999 0,884 -1154.9997,1722 -3153.9997,2288 l -290,-986 c -0.999,-4 9,-2.001 14,-4 1292,-336 2088,-793 2088,-1298 0,-1032 -3329,-1867.999 -7434.9995,-1867.999 -4105.9998,0 -7434.9996,835.999 -7434.9996,1867.999 0,759 1798.9998,1412 4383.9997,1705 z"
         class="fil0" /><path
         style="clip-rule:evenodd;fill:#38c6f4;fill-rule:evenodd;image-rendering:optimizeQuality;shape-rendering:geometricPrecision;text-rendering:geometricPrecision"
         inkscape:connector-curvature="0"
         id="path18"
         d="m 7131.8203,31147.407 c -455,90 -563,265 -417,575 -325,-230 -259,-564 33,-642 2314,-670 2880,-1423 1621,-2262 1426,807 997,1583 -1237,2329 z"
         class="fil2" /><path
         style="clip-rule:evenodd;fill:#38c6f4;fill-rule:evenodd;image-rendering:optimizeQuality;shape-rendering:geometricPrecision;text-rendering:geometricPrecision"
         inkscape:connector-curvature="0"
         id="path20"
         d="m -6155.1788,30973.407 c -4270.0002,-3139.999 7720.9993,-5526.999 15014.9991,-2777 -6946.9997,-3071.999 -19913.9993,-431 -15014.9991,2777 z"
         class="fil2" /><path
         style="clip-rule:evenodd;fill:#38c6f4;fill-rule:evenodd;image-rendering:optimizeQuality;shape-rendering:geometricPrecision;text-rendering:geometricPrecision"
         inkscape:connector-curvature="0"
         id="path22"
         d="m -2795.1789,31407.407 c -108.0002,54 -2190,-460 -2551,-812 1301.9999,513 2411.9999,805 2509,619 26.9999,-143 33.9998,-288 16,-434 78,35 148.9998,76 210.9997,127 7.0003,277 -40.9998,446 -184.9997,500 z"
         class="fil2" /><path
         style="clip-rule:evenodd;fill:#38c6f4;fill-rule:evenodd;image-rendering:optimizeQuality;shape-rendering:geometricPrecision;text-rendering:geometricPrecision"
         inkscape:connector-curvature="0"
         id="path24"
         d="m -3024.1791,32316.407 c -101,119 -229.9998,160 -372.9998,159 179,-174 250.9999,-342 224.9999,-506 183,59 222.9999,179 147.9999,347 z"
         class="fil2" /><circle
         style="clip-rule:evenodd;fill:#0c5ca8;fill-rule:evenodd;image-rendering:optimizeQuality;shape-rendering:geometricPrecision;text-rendering:geometricPrecision"
         id="circle28"
         r="657.99994"
         cy="24167.408"
         cx="1370.8213"
         class="fil4" /><path
         style="clip-rule:evenodd;fill:#00adef;fill-rule:evenodd;image-rendering:optimizeQuality;shape-rendering:geometricPrecision;text-rendering:geometricPrecision"
         inkscape:connector-curvature="0"
         id="path30"
         d="m 1370.8208,23689.408 c -264.0003,0 -478.00002,214 -478.00002,478 0,264 213.99972,477 478.00002,477 19.9999,0 39.9999,-0.999 59.9999,-3 -235.9999,-30 -417.9999,-231 -417.9999,-474 0,-243 182,-444 417.9999,-474 -20,-2 -40,-4 -59.9999,-4 z"
         class="fil0" /><circle
         style="clip-rule:evenodd;fill:#0c5ca8;fill-rule:evenodd;image-rendering:optimizeQuality;shape-rendering:geometricPrecision;text-rendering:geometricPrecision"
         id="circle32"
         r="421.99997"
         cy="29470.408"
         cx="6386.8203"
         class="fil4" /><circle
         style="clip-rule:evenodd;fill:#0c5ca8;fill-rule:evenodd;image-rendering:optimizeQuality;shape-rendering:geometricPrecision;text-rendering:geometricPrecision"
         id="circle34"
         r="421.99997"
         cy="29470.408"
         cx="-3646.179"
         class="fil4" /><path
         style="clip-rule:evenodd;fill:#0c5ca8;fill-rule:evenodd;stroke:#0c5ca8;stroke-width:7.61999893;image-rendering:optimizeQuality;shape-rendering:geometricPrecision;text-rendering:geometricPrecision"
         inkscape:connector-curvature="0"
         id="path36"
         d="m 1370.8208,30897.407 0,-6150.999 104.9999,7 11.9998,62 c 216.0002,1958 737.0002,4308.999 1093.0001,4692.999 221.9997,256 454.9997,380 694.9997,424 526,89 2107,-223 2696,-542 l 836,118 c -58,865 -1921,1317 -5436.9995,1389 z"
         class="fil4 str0" /><path
         style="clip-rule:evenodd;fill:#0c5ca8;fill-rule:evenodd;stroke:#0c5ca8;stroke-width:7.61999893;image-rendering:optimizeQuality;shape-rendering:geometricPrecision;text-rendering:geometricPrecision"
         inkscape:connector-curvature="0"
         id="path38"
         d="m 1370.8208,30897.407 0,-6150.999 -106.0001,7 -10.9999,62 c -217.0001,1958 -738.00012,4308.999 -1094.00002,4692.999 -221.999898,256 -455,380 -693.9999,424 -526.00008,89 -2107.99978,-223 -2696.99978,-542 l -836.0001,118 c 59,865 1921.9999,1317 5437.9998,1389 z"
         class="fil4 str0" /><path
         style="clip-rule:evenodd;fill:#00adef;fill-rule:evenodd;image-rendering:optimizeQuality;shape-rendering:geometricPrecision;text-rendering:geometricPrecision"
         inkscape:connector-curvature="0"
         id="path40"
         d="m 545.82058,29275.407 c -121.9998,394 -671.9998,925 -1173.9998,864 437.9999,-50 804.9999,-242 1101,-937 405.9998,-1144.999 644.99992,-2367.999 898.00002,-3584.999 33.9999,121 30.9998,244 0,370 -231,1120.999 -450.00022,2247.999 -825.00022,3287.999 z"
         class="fil5" /><path
         style="clip-rule:evenodd;fill:#00adef;fill-rule:evenodd;image-rendering:optimizeQuality;shape-rendering:geometricPrecision;text-rendering:geometricPrecision"
         inkscape:connector-curvature="0"
         id="path42"
         d="m 6224.8203,29489.407 c -347,359 -1282,600 -2811,659 1510,-167 2562,-384 2748,-692 28,-164.999 115,-239 255,-196 -143,19 -196,116 -192,229 z"
         class="fil5" /><path
         style="clip-rule:evenodd;fill:#00adef;fill-rule:evenodd;image-rendering:optimizeQuality;shape-rendering:geometricPrecision;text-rendering:geometricPrecision"
         inkscape:connector-curvature="0"
         id="path44"
         d="m -3773.1791,29757.407 c -170.9998,-305 -19.9999,-568 188.0001,-497 -227.0001,96.001 -232.9998,256 -108.9999,454 476,619 2178.9999,853 4226.99948,979 -2314.99958,-66 -3912.99958,-368 -4305.99968,-936 z"
         class="fil5" /><path
         style="clip-rule:evenodd;fill:#38c6f4;fill-rule:evenodd;image-rendering:optimizeQuality;shape-rendering:geometricPrecision;text-rendering:geometricPrecision"
         inkscape:connector-curvature="0"
         id="path46"
         d="m 1283.8207,21633.408 c -329.99992,10 -641.99992,105 -898.00002,235 -332.999898,171 -307.999798,195 -505,338 -182,132 23.000002,330 147.000002,214 51.0001,-48 100.000098,-87 158.000098,-129 651,-473 1449.00002,-536 2162.99982,-143 l 253.9997,167 c 111,87 169,174 270,126 59,-29 104,-118 49,-195 -27,-37 -287,-224 -320,-246 -385.9997,-251 -830.9998,-383 -1317.9996,-367 z"
         class="fil6" /><path
         style="clip-rule:evenodd;fill:#38c6f4;fill-rule:evenodd;image-rendering:optimizeQuality;shape-rendering:geometricPrecision;text-rendering:geometricPrecision"
         inkscape:connector-curvature="0"
         id="path48"
         d="m 1212.8207,22258.408 c -305.00012,33 -642.00002,184 -850.00002,372 -25.0001,22 -84,57 -98.9999,104 -30.0002,95 66.9999,233 206.9999,119 128.0001,-105 211.9999,-163 374.9999,-237 419.00012,-189 924.99992,-124 1294.00012,125 39,26 82,57 114.9999,85 30.9999,28 69,73 133.0001,69 82.9998,-5 183.9998,-126 37.9998,-239 -362,-281 -695.9998,-453 -1212.9998,-398 z"
         class="fil6" /><path
         style="clip-rule:evenodd;fill:#38c6f4;fill-rule:evenodd;image-rendering:optimizeQuality;shape-rendering:geometricPrecision;text-rendering:geometricPrecision"
         inkscape:connector-curvature="0"
         id="path50"
         d="m 1264.8207,22878.408 c -194.0001,24 -381.00002,111 -524.00002,226 -105,84 2.0009,302 172,173 274.99992,-210 648.00002,-210 924.99992,-5 52.0001,39 108,77 176.9999,15 132.0002,-118 -43.9998,-224 -143,-279 -185.9999,-104 -384,-157 -606.9998,-130 z"
         class="fil6" /></g></g></svg>