<?xml version="1.0" encoding="UTF-8"?>
<!DOCTYPE svg PUBLIC "-//W3C//DTD SVG 1.1//EN" "http://www.w3.org/Graphics/SVG/1.1/DTD/svg11.dtd">
<!-- Creator: CorelDRAW X7 -->
<svg xmlns="http://www.w3.org/2000/svg" xml:space="preserve" width="215.9mm" height="279.4mm" version="1.1" style="shape-rendering:geometricPrecision; text-rendering:geometricPrecision; image-rendering:optimizeQuality; fill-rule:evenodd; clip-rule:evenodd"
viewBox="0 0 21590 27940"
 xmlns:xlink="http://www.w3.org/1999/xlink">
 <defs>
  <style type="text/css">
   <![CDATA[
    .str0 {stroke:#0C5CA8;stroke-width:7.62}
    .fil1 {fill:none}
    .fil5 {fill:#00ADEF}
    .fil0 {fill:#00ADEF}
    .fil4 {fill:#0C5CA8}
    .fil3 {fill:#22569A}
    .fil2 {fill:#38C6F4}
    .fil6 {fill:#38C6F4}
   ]]>
  </style>
 </defs>
 <g id="Capa_x0020_1">
  <metadata id="CorelCorpID_0Corel-Layer"/>
  <path class="fil0" d="M5826 16836c-57,26 -96,84 -96,152 0,92 76,185 167,167l2688 -545c90,-19 167,-75 167,-167 0,-80 -56,-125 -129,-163l0 0 -2008 -1208c-26,-17 -57,-27 -91,-27 -93,0 -167,75 -167,167 0,9 0,17 1,25l0 0 0 350 -348 1001c-46,94 -106,178 -184,248l0 0z"/>
  <circle class="fil0" cx="16185" cy="15876" r="514"/>
  <line class="fil1" x1="10731" y1="5570" x2="10731" y2= "15785" />
  <path class="fil0" d="M7680 15780l-1507 842c-2620,-541 -4219,-1506 -4219,-2547 0,-1645 3929,-2980 8777,-2980 4847,0 8777,1335 8777,2980 0,884 -1155,1722 -3154,2288l-290 -986c-1,-4 9,-2 14,-4 1292,-336 2088,-793 2088,-1298 0,-1032 -3329,-1868 -7435,-1868 -4106,0 -7435,836 -7435,1868 0,759 1799,1412 4384,1705z"/>
  <path class="fil2" d="M16492 15607c-455,90 -563,265 -417,575 -325,-230 -259,-564 33,-642 2314,-670 2880,-1423 1621,-2262 1426,807 997,1583 -1237,2329z"/>
  <path class="fil2" d="M3205 15433c-4270,-3140 7721,-5527 15015,-2777 -6947,-3072 -19914,-431 -15015,2777z"/>
  <path class="fil2" d="M6565 15867c-108,54 -2190,-460 -2551,-812 1302,513 2412,805 2509,619 27,-143 34,-288 16,-434 78,35 149,76 211,127 7,277 -41,446 -185,500z"/>
  <path class="fil2" d="M6336 16776c-101,119 -230,160 -373,159 179,-174 251,-342 225,-506 183,59 223,179 148,347z"/>
  <path class="fil3" d="M730 21084c-93,0 -162,-14 -207,-42 -46,-28 -68,-87 -68,-177l0 -1617c0,-539 412,-809 1235,-809l952 0c823,0 1235,270 1235,809l0 1617c0,90 -23,149 -70,177 -46,28 -116,42 -209,42 -93,0 -163,-14 -208,-42 -45,-28 -67,-87 -67,-177l0 -1617c0,-96 -56,-177 -166,-242 -111,-65 -288,-97 -533,-97l-916 0c-245,0 -422,32 -533,97 -110,65 -166,146 -166,242l0 1617c0,90 -23,149 -70,177 -46,28 -116,42 -209,42zm4055 -1065l0 237c0,93 55,173 166,240 110,66 288,100 532,100l502 0c67,0 110,19 129,58 19,39 28,97 28,174 0,78 -9,136 -28,177 -19,40 -62,60 -129,60l-519 0c-824,0 -1236,-269 -1236,-809l0 -1008c0,-539 412,-809 1236,-809l1008 0c437,0 752,67 945,200 194,133 290,336 290,609l0 534c0,90 -16,152 -48,186 -32,34 -103,51 -214,51l-2662 0zm0 -460l2370 0 0 -311c0,-109 -55,-192 -164,-251 -109,-59 -287,-88 -534,-88l-974 0c-244,0 -422,32 -532,97 -111,65 -166,146 -166,242l0 311zm3439 -1120l0 -544c0,-89 23,-148 68,-176 45,-28 114,-42 207,-42 93,0 163,14 210,42 46,28 70,87 70,176l0 544 921 0c67,0 110,20 128,61 19,40 29,99 29,176 0,78 -10,136 -29,175 -18,38 -61,58 -128,58l-921 0 0 1956c0,90 -24,149 -70,177 -47,28 -117,42 -210,42 -93,0 -162,-14 -207,-42 -45,-28 -68,-87 -68,-177l0 -1956 -248 0c-67,0 -110,-20 -129,-58 -19,-39 -29,-97 -29,-175 0,-77 10,-136 29,-176 19,-41 62,-61 129,-61l248 0zm3012 2626c-823,0 -1235,-269 -1235,-809l0 -1008c0,-539 412,-809 1235,-809l2183 0c66,0 110,20 130,58 21,39 31,99 31,179 0,78 -10,136 -31,175 -20,38 -64,58 -130,58l-2165 0c-245,0 -422,32 -533,97 -111,65 -166,146 -166,242l0 1008c0,93 55,173 166,240 111,66 288,100 533,100l2178 0c67,0 109,19 128,58 19,39 29,97 29,174 0,78 -10,136 -29,177 -19,40 -61,60 -128,60l-2196 0zm2663 -1817c0,-539 411,-809 1235,-809l951 0c824,0 1236,270 1236,809l0 1008c0,540 -412,809 -1236,809l-951 0c-824,0 -1235,-269 -1235,-809l0 -1008zm2867 0c0,-96 -55,-177 -166,-242 -110,-65 -288,-97 -532,-97l-917 0c-244,0 -422,32 -532,97 -111,65 -166,146 -166,242l0 1008c0,93 55,173 166,240 110,66 288,100 532,100l917 0c244,0 422,-34 532,-100 111,-67 166,-147 166,-240l0 -1008zm1463 2379c0,90 -24,149 -70,177 -47,28 -117,42 -210,42 -93,0 -162,-14 -207,-42 -45,-28 -68,-87 -68,-177l0 -2379c0,-539 412,-809 1235,-809l1048 0c824,0 1235,270 1235,809l0 1008c0,540 -411,809 -1235,809l-1728 0 0 562zm1711 -1031c244,0 422,-33 532,-98 111,-65 166,-146 166,-242l0 -1008c0,-93 -55,-173 -166,-239 -110,-67 -288,-100 -532,-100l-1013 0c-244,0 -422,33 -533,100 -110,66 -165,146 -165,239l0 1348 1711 0z"/>
  <circle class="fil4" cx="10731" cy="8627" r="658"/>
  <path class="fil0" d="M10731 8149c-264,0 -478,214 -478,478 0,264 214,477 478,477 20,0 40,-1 60,-3 -236,-30 -418,-231 -418,-474 0,-243 182,-444 418,-474 -20,-2 -40,-4 -60,-4z"/>
  <circle class="fil4" cx="15747" cy="13930" r="422"/>
  <circle class="fil4" cx="5714" cy="13930" r="422"/>
  <path class="fil4 str0" d="M10731 15357l0 -6151 105 7 12 62c216,1958 737,4309 1093,4693 222,256 455,380 695,424 526,89 2107,-223 2696,-542l836 118c-58,865 -1921,1317 -5437,1389z"/>
  <path class="fil4 str0" d="M10731 15357l0 -6151 -106 7 -11 62c-217,1958 -738,4309 -1094,4693 -222,256 -455,380 -694,424 -526,89 -2108,-223 -2697,-542l-836 118c59,865 1922,1317 5438,1389z"/>
  <path class="fil5" d="M9906 13735c-122,394 -672,925 -1174,864 438,-50 805,-242 1101,-937 406,-1145 645,-2368 898,-3585 34,121 31,244 0,370 -231,1121 -450,2248 -825,3288z"/>
  <path class="fil5" d="M15585 13949c-347,359 -1282,600 -2811,659 1510,-167 2562,-384 2748,-692 28,-165 115,-239 255,-196 -143,19 -196,116 -192,229z"/>
  <path class="fil5" d="M5587 14217c-171,-305 -20,-568 188,-497 -227,96 -233,256 -109,454 476,619 2179,853 4227,979 -2315,-66 -3913,-368 -4306,-936z"/>
  <path class="fil6" d="M10644 6093c-330,10 -642,105 -898,235 -333,171 -308,195 -505,338 -182,132 23,330 147,214 51,-48 100,-87 158,-129 651,-473 1449,-536 2163,-143l254 167c111,87 169,174 270,126 59,-29 104,-118 49,-195 -27,-37 -287,-224 -320,-246 -386,-251 -831,-383 -1318,-367z"/>
  <path class="fil6" d="M10573 6718c-305,33 -642,184 -850,372 -25,22 -84,57 -99,104 -30,95 67,233 207,119 128,-105 212,-163 375,-237 419,-189 925,-124 1294,125 39,26 82,57 115,85 31,28 69,73 133,69 83,-5 184,-126 38,-239 -362,-281 -696,-453 -1213,-398z"/>
  <path class="fil6" d="M10625 7338c-194,24 -381,111 -524,226 -105,84 2,302 172,173 275,-210 648,-210 925,-5 52,39 108,77 177,15 132,-118 -44,-224 -143,-279 -186,-104 -384,-157 -607,-130z"/>
 </g>
</svg>
